<?xml version="1.0" standalone="no"?>
<!DOCTYPE svg PUBLIC "-//W3C//DTD SVG 20010904//EN"
 "http://www.w3.org/TR/2001/REC-SVG-20010904/DTD/svg10.dtd">
<svg version="1.0" xmlns="http://www.w3.org/2000/svg"
 width="90.000000pt" height="94.000000pt" viewBox="0 0 90.000000 94.000000"
 preserveAspectRatio="xMidYMid meet">
 <!-- <svg width="159" height="50" viewBox="0 0 159 50" fill="none" xmlns="http://www.w3.org/2000/svg"> -->
<metadata>
Created by potrace 1.10, written by Peter Selinger 2001-2011
</metadata>
<g transform="translate(0.000000,94.000000) scale(0.10000,-0.100000)"
 fill="#645CFF" stroke="none">
<path d="M738 744 c-67 -16 -125 -43 -151 -72 -18 -20 -19 -20 -50 -2 -48 27
-87 32 -139 17 -99 -30 -161 -111 -161 -211 0 -57 28 -130 61 -160 23 -20 21
-39 -2 -30 -8 3 -15 -4 -18 -19 -3 -17 2 -26 19 -34 18 -9 23 -8 23 3 0 8 8
14 17 14 15 0 14 2 -3 14 -31 23 -10 28 34 8 23 -10 39 -23 34 -28 -4 -4 0 -4
8 2 8 6 36 12 63 13 47 2 47 2 47 -31 l1 -33 19 24 c17 20 24 22 50 13 34 -12
36 -10 15 22 -14 21 -13 25 5 46 25 29 25 29 -2 23 -50 -11 -54 -13 -38 -24
13 -8 11 -12 -10 -29 -20 -15 -27 -17 -38 -6 -17 16 12 78 33 70 17 -7 43 42
79 151 30 91 51 131 40 75 -4 -19 -8 -44 -10 -55 -3 -26 -32 -105 -43 -119 -5
-6 -12 -22 -16 -36 -15 -51 24 4 45 64 12 33 35 72 56 93 19 19 33 37 30 41
-3 3 -15 -7 -27 -21 -33 -43 -38 -32 -20 41 22 85 42 123 82 156 17 15 30 28
28 30 -2 2 -30 -3 -61 -10z m-9 -41 c-33 -38 -99 -169 -99 -197 0 -9 -6 -16
-13 -16 -9 0 -12 11 -9 35 2 20 -1 49 -8 65 -11 25 -9 33 9 56 11 14 18 31 14
38 -3 6 -3 8 1 4 4 -3 32 7 63 23 73 38 82 37 42 -8z m-205 -39 c31 -15 33
-20 25 -41 -15 -41 -10 -80 15 -111 25 -29 25 -29 6 -60 -44 -71 -126 -89
-180 -37 -25 24 -30 37 -30 74 -1 38 -3 43 -11 28 -31 -53 38 -147 107 -147
48 0 108 35 130 76 16 29 34 45 34 29 0 -16 -54 -135 -61 -135 -5 0 -9 5 -9
10 0 21 -18 9 -24 -15 -4 -15 -17 -30 -32 -35 -14 -6 -22 -14 -19 -20 11 -17
-11 -11 -28 8 -13 14 -14 21 -5 30 17 17 3 25 -21 12 -14 -7 -21 -7 -21 0 0 5
-7 10 -15 10 -8 0 -15 -5 -15 -11 0 -5 4 -8 10 -4 5 3 16 -8 25 -25 15 -30 11
-36 -19 -24 -9 3 -13 10 -10 15 3 5 -2 6 -11 3 -38 -15 -115 109 -115 183 0
68 63 162 125 189 42 18 108 17 149 -2z m61 -24 c-4 -6 -1 -35 6 -65 12 -55 6
-82 -12 -55 -5 8 -8 31 -5 50 l4 35 -13 -30 -14 -30 -1 30 c0 17 7 41 16 53
15 22 31 32 19 12z m-275 -386 c0 -8 -4 -12 -10 -9 -5 3 -10 13 -10 21 0 8 5
12 10 9 6 -3 10 -13 10 -21z"/>
<path d="M1260 601 c0 -5 4 -11 9 -13 5 -1 -2 -46 -15 -98 -13 -52 -23 -97
-24 -100 0 -3 24 -7 54 -8 44 -2 60 2 81 20 31 27 45 98 25 123 -16 19 -54 19
-70 0 -20 -24 -22 -12 -5 35 8 23 15 44 15 46 0 2 -16 4 -35 4 -19 0 -35 -4
-35 -9z m96 -95 c9 -24 -16 -95 -38 -107 -28 -15 -38 2 -28 48 13 54 54 91 66
59z"/>
<path d="M1450 601 c0 -5 5 -11 11 -13 6 -2 2 -39 -14 -104 l-23 -101 58 -1
c69 -2 91 14 108 77 17 64 -10 96 -64 75 -24 -9 -19 -26 5 -19 21 7 22 5 17
-40 -7 -55 -40 -97 -60 -77 -9 9 -9 21 0 55 7 23 14 56 16 72 2 17 7 42 11 58
7 26 6 27 -29 27 -20 0 -36 -4 -36 -9z"/>
<path d="M970 585 c19 -22 -35 -236 -61 -242 -26 -7 -24 -23 2 -23 53 0 66 22
99 168 12 50 26 92 31 92 5 0 9 5 9 10 0 6 -21 10 -46 10 -40 0 -45 -2 -34
-15z"/>
<path d="M1984 583 c9 -22 -24 -163 -42 -185 -14 -17 -12 -18 23 -18 30 0 35
3 26 13 -11 15 12 154 29 171 5 5 7 0 3 -13 -9 -35 7 -151 21 -151 7 0 33 36
57 80 26 47 49 78 57 75 6 -2 12 1 12 7 0 6 2 9 5 6 3 -3 1 -16 -4 -29 -9 -21
-10 -22 -11 -4 -1 31 -15 1 -30 -65 -7 -30 -19 -63 -28 -72 -14 -17 -12 -18
33 -18 37 0 45 3 37 13 -13 16 22 164 45 189 15 17 14 18 -28 18 l-44 0 -40
-73 -40 -72 -3 73 -3 72 -41 0 c-34 0 -39 -3 -34 -17z"/>
<path d="M2280 508 c-29 -51 -60 -101 -68 -110 -14 -17 -12 -18 23 -18 29 0
36 3 28 11 -8 8 -8 18 -1 35 9 18 19 24 45 24 28 0 33 -4 33 -23 0 -13 -5 -28
-12 -35 -9 -9 -1 -12 36 -12 38 0 46 3 38 13 -5 6 -13 56 -17 110 -7 91 -9 97
-29 97 -17 0 -34 -21 -76 -92z m60 7 c0 -42 -2 -45 -26 -45 -14 0 -24 3 -22 8
19 38 42 82 45 82 2 0 3 -20 3 -45z"/>
<path d="M2474 582 c8 -24 -20 -147 -40 -179 -14 -22 -13 -23 22 -23 30 0 34
3 25 14 -8 10 -8 27 0 67 18 87 20 88 48 4 21 -62 32 -81 48 -83 18 -3 23 8
43 97 13 56 27 101 32 101 4 0 8 5 8 10 0 6 -14 10 -31 10 -26 0 -29 -3 -24
-21 9 -28 -24 -176 -36 -158 -12 19 -11 32 1 24 15 -9 13 3 -13 81 -22 65 -26
69 -56 72 -29 3 -32 1 -27 -16z"/>
<path d="M1079 511 c-22 -22 -29 -39 -29 -68 0 -22 5 -44 12 -51 15 -15 72
-16 99 -2 23 13 49 61 49 93 0 60 -81 77 -131 28z m81 -26 c0 -60 -37 -112
-63 -86 -14 14 2 90 24 112 25 25 39 16 39 -26z"/>
<path d="M1649 511 c-36 -37 -42 -104 -10 -121 29 -15 73 -12 99 6 31 22 17
36 -17 17 -32 -19 -61 -12 -61 15 0 15 9 21 40 25 49 6 70 22 70 52 0 45 -78
49 -121 6z m75 -18 c-15 -24 -54 -36 -54 -18 0 25 40 59 53 46 8 -8 8 -16 1
-28z"/>
<path d="M1808 527 c8 -10 7 -28 -3 -68 -20 -72 -19 -79 9 -79 20 0 25 6 30
44 4 25 17 57 28 72 20 24 22 25 34 9 15 -20 29 -14 37 15 4 16 0 20 -21 20
-14 0 -36 -10 -49 -22 -23 -22 -33 -12 -11 10 9 9 4 12 -26 12 -31 0 -36 -3
-28 -13z"/>
<path d="M655 271 c6 -36 4 -41 -24 -62 -17 -13 -31 -26 -31 -30 0 -4 16 -10
35 -13 29 -6 36 -12 46 -46 12 -38 13 -39 31 -24 10 10 18 26 18 37 0 18 5 19
51 14 47 -6 50 -5 38 11 -7 9 -22 25 -34 34 -20 17 -20 17 -1 53 20 36 16 56
-6 38 -29 -23 -60 -22 -87 3 -36 33 -44 30 -36 -15z m50 -21 c5 -15 12 -19 26
-15 26 8 25 -16 -1 -40 -14 -13 -19 -27 -16 -47 6 -39 -12 -46 -25 -9 -6 17
-17 31 -24 31 -23 0 -28 20 -10 40 11 12 16 30 13 49 -4 26 -2 29 13 20 10 -5
21 -18 24 -29z"/>
<path d="M242 242 c-14 -4 -16 -42 -2 -42 5 0 7 8 4 18 -5 16 -5 16 9 -1 11
-13 16 -14 20 -5 6 16 -14 36 -31 30z"/>
<path d="M193 195 c0 -8 6 -16 14 -19 8 -3 13 2 13 14 0 11 -6 20 -13 20 -8 0
-14 -7 -14 -15z"/>
<path d="M180 160 c0 -5 5 -10 10 -10 6 0 10 5 10 10 0 6 -4 10 -10 10 -5 0
-10 -4 -10 -10z"/>
</g>
</svg>
